<svg width="920" height="980" viewBox="0 0 920 980" fill="none" xmlns="http://www.w3.org/2000/svg">
<path d="M479 0V1H485L479 0Z" fill="#85D1CD"/>
<path d="M336 461C357.6 445.785 373.69 422.13 393.209 404.594C456.197 348.008 513.709 285.244 574.76 226.572C591.208 210.765 607.54 194.803 623.667 178.667C630 172.33 639.952 166.041 643.972 158C646.687 152.571 645.148 142.992 644.947 137.04C641.995 49.6937 547.721 -11.3925 466 2.28554C411.64 11.384 366.465 49.5625 345.579 100C329.674 138.41 336 184.33 336 225V461Z" fill="#17B3AD"/>
<path d="M496 0V1H502L496 0ZM469 1V2H472L469 1ZM444 7V8H447L444 7ZM441 8V9H444L441 8ZM544 10V11H547L544 10ZM342 107V110H343L342 107ZM341 110V113H342L341 110ZM644 127V130H645L644 127Z" fill="#85D1CD"/>
<path d="M755 127V128H785L755 127ZM747 128V129H752L747 128Z" fill="#DFE563"/>
<path d="M667 474H733C741.769 474 754.732 476.41 763 473.397C770.794 470.557 777.662 460.8 783.345 455C794.736 443.375 806.931 432.09 819 421.17C845.114 397.541 875.412 373.543 893.691 343C924.943 290.777 916.169 219.661 875.83 175C834.74 129.507 769.374 115.655 713 138.695C699.545 144.194 673.334 155.767 667.589 170.289C664.655 177.706 667 190.057 667 198V260V474Z" fill="#D3DD03"/>
<path d="M787 128V129H792L787 128ZM794 129V130H797L794 129Z" fill="#DFE563"/>
<path d="M645 135V158H646L645 135Z" fill="#85D1CD"/>
<path d="M666 170V474H667V259V197L666 170Z" fill="#DFE563"/>
<path d="M637 204L459 383L400 442L369 474C393.653 456.634 414.657 429.343 436 408L568 276C584.842 259.158 601.151 241.849 618 225C623.471 219.529 635.162 211.584 637 204Z" fill="#DFE563"/>
<path d="M637 205L460 383L401 442L370 474H638V284V230L637 205Z" fill="#D3DD03"/>
<path d="M909 240V243H910L909 240Z" fill="#DFE563"/>
<path d="M910 296V299H911L910 296Z" fill="#DFE563"/>
<path d="M909 300V303H910L909 300ZM908 304V307H909L908 304Z" fill="#DFE563"/>
<path d="M306 646V433V368L305 335C290.648 336.685 275.382 335.161 260.919 335.162C234.507 335.164 208.065 335.703 181.656 335.319C145.862 334.798 111.813 336.527 80 355.453C-2.28362 404.404 -26.0013 517.079 38.2894 591C51.2303 605.879 66.6681 618.295 84 627.691C118.565 646.43 154.867 646 193 646H306Z" fill="#17B3AD"/>
<path d="M111 341V342H114L111 341ZM108 342V343H111L108 342Z" fill="#85D1CD"/>
<path d="M1 470V473H2L1 470Z" fill="#85D1CD"/>
<path d="M0 480V500H1L0 480ZM1 507V511H2L1 507Z" fill="#85D1CD"/>
<path d="M371 508V509H375L371 508ZM376 508V509H379L376 508ZM380 508V509H384L380 508ZM385 508V509H388L385 508ZM389 508V509H405L389 508ZM406 508V509H410L406 508ZM411 508V509H415L411 508ZM416 508V509H419L416 508ZM420 508V509H435L420 508ZM436 508V509H440L436 508ZM441 508V509H445L441 508ZM446 508V509H449L446 508ZM450 508V509H465L450 508ZM466 508V509H470L466 508ZM471 508V509H475L471 508ZM476 508V509H479L476 508ZM480 508V509H495L480 508ZM496 508V509H500L496 508ZM501 508V509H505L501 508ZM506 508V509H509L506 508ZM510 508V509H525L510 508ZM526 508V509H530L526 508ZM531 508V509H535L531 508ZM536 508V509H539L536 508ZM540 508V509H555L540 508ZM556 508V509H560L556 508ZM561 508V509H565L561 508ZM566 508V509H569L566 508ZM570 508V509H585L570 508ZM586 508V509H590L586 508ZM591 508V509H595L591 508ZM596 508V509H599L596 508ZM600 508V509H615L600 508ZM616 508V509H620L616 508ZM621 508V509H625L621 508ZM626 508V509H629L626 508ZM630 508V509H637L630 508ZM678 824L667.603 811L667 786V729V509H675C664.631 504.66 666 516.3 666 523V578V759C666 779.935 658.997 810.614 678 824ZM676 508V509H680L676 508ZM681 508V509H685L681 508ZM686 508V509H689L686 508ZM690 508V509H705L690 508ZM706 508V509H710L706 508ZM711 508V509H715L711 508ZM716 508V509H719L716 508ZM720 508V509H735L720 508ZM736 508V509H740L736 508ZM741 508V509H745L741 508ZM369 509C374.637 521.089 389.603 531.603 399 541C420.978 562.978 442.615 591.118 468 609L431 571L369 509Z" fill="#DFE563"/>
<path d="M370 509C374.815 519.325 386.99 527.99 395 536L449 590C492.543 633.543 535.849 677.221 579.714 720.424C598.577 739.002 616.348 762.748 638 778V509H370ZM667 509V721V784C667 792.192 664.757 804.28 667.603 812C672.928 826.442 697.101 837.08 710 843.255C765.715 869.926 836.122 853.069 876.83 808C918.939 761.38 924.569 687.818 890.946 635C875.481 610.706 851.407 593.68 831.657 573.255C816.403 557.48 800.042 542.854 784 527.911C777.841 522.173 771.133 512.562 763 509.603C754.728 506.593 741.773 509 733 509H667Z" fill="#D3DD03"/>
<path d="M336 517V748C336 790.909 330.387 836.981 344.695 878C350.774 895.427 360.958 911.9 372.754 926C383.062 938.322 395.486 948.12 409 956.681C501.932 1015.55 627.558 955.973 644.561 848C645.559 841.665 647.679 832.19 645.397 826C642.494 818.128 631.838 810.838 626 805L579 758L413 592L363 542C354.955 533.955 346.146 522.381 336 517Z" fill="#17B3AD"/>
<path d="M305 534V537H306L305 534ZM8.00004 536V539H9.00004L8.00004 536Z" fill="#85D1CD"/>
<path d="M111 639V640H114L111 639Z" fill="#85D1CD"/>
<path d="M139 645V646H149L139 645ZM150 646V647H306C293.83 641.893 272.253 646 259 646H150Z" fill="#85D1CD"/>
<path d="M908 675V678H909L908 675Z" fill="#DFE563"/>
<path d="M909 678V682H910L909 678Z" fill="#DFE563"/>
<path d="M910 682V685H911L910 682Z" fill="#DFE563"/>
<path d="M910 738V741H911L910 738Z" fill="#DFE563"/>
<path d="M909 742V745H910L909 742Z" fill="#DFE563"/>
<path d="M908 746V749H909L908 746Z" fill="#DFE563"/>
<path d="M899 771V774H900L899 771Z" fill="#DFE563"/>
<path d="M645 839V842H646L645 839Z" fill="#85D1CD"/>
<path d="M746 854V855H749L746 854ZM788 854V855H792L788 854ZM754 855V856H785L754 855Z" fill="#DFE563"/>
<path d="M341 867V870H342L341 867ZM342 870V873H343L342 870ZM441 972V973H444L441 972ZM470 979V980H473L470 979ZM508 979V980H511L508 979Z" fill="#85D1CD"/>
</svg>
